<svg xmlns="http://www.w3.org/2000/svg" xmlns:xlink="http://www.w3.org/1999/xlink" width="249" height="208"><defs><clipPath id="prefix__b"><path d="M0 0h249v208H0z"/></clipPath><filter id="prefix__a" filterUnits="objectBoundingBox" x="0%" y="0%" width="100%" height="100%"><feColorMatrix in="SourceGraphic" values="0 0 0 0 1 0 0 0 0 1 0 0 0 0 1 0 0 0 1 0"/></filter><mask id="prefix__d"><g filter="url(#prefix__a)"><path fill-opacity=".102" d="M0 0h249v208H0z"/></g></mask><g id="prefix__c" clip-path="url(#prefix__b)"><path d="M165.465 17.207s4.062 11.57 1.562 13.348c-2.5 1.78 8.438 16.316 8.438 16.316l13.125-3.559-7.188-12.164s-.937-12.164-.937-13.941c0-1.781-15 0-15 0zm0 0"/></g></defs><path d="M11.57 198.195c3.453 6.41 10.785 9.16 10.785 9.16s1.73-7.64-1.722-14.05c-3.457-6.41-10.785-9.16-10.785-9.16s-1.73 7.64 1.722 14.05zm0 0" fill="#2f2e41"/><path d="M13.945 196.086c6.235 3.754 8.637 11.21 8.637 11.21s-7.71 1.372-13.945-2.382C2.402 201.16 0 193.704 0 193.704s7.707-1.372 13.945 2.382zm0 0" fill="#065f46"/><path d="M114.844 9.984h38.906v.559h-38.906zm0 0" fill="#f2f2f2"/><path d="M142.633 10.402h.554v5.145h-.554zm0 0M125.68 10.402h.558v5.145h-.558zm0 0M134.574 36.68h38.906v.558h-38.906zm0 0" fill="#f2f2f2"/><path d="M145.133 31.676h.558v5.144h-.558zm0 0M162.086 31.676h.555v5.144h-.555zm0 0M186.262 49.195h38.906v.555h-38.906zm0 0" fill="#f2f2f2"/><path d="M196.824 44.188h.555v5.144h-.555zm0 0M213.777 44.188h.555v5.144h-.555zm0 0M182.371 178.219h38.906v.558h-38.906zm0 0" fill="#f2f2f2"/><path d="M192.934 173.215h.554v5.144h-.554zm0 0M209.887 173.215h.554v5.144h-.554zm0 0M115.953 88.957h38.906v.559h-38.906zm0 0" fill="#f2f2f2"/><path d="M126.516 83.953h.554v5.145h-.554zm0 0M143.465 83.953h.558v5.145h-.558zm0 0M128.184 155.973h38.906v.558h-38.906zm0 0" fill="#f2f2f2"/><path d="M138.742 150.969h.555v5.144h-.555zm0 0M155.695 150.969h.555v5.144h-.555zm0 0M190.434 135.676h38.906v.554h-38.906zm0 0" fill="#f2f2f2"/><path d="M200.992 130.668h.555v5.144h-.555zm0 0M217.945 130.668h.555v5.144h-.555zm0 0" fill="#f2f2f2"/><path d="M100.617 195.258H34.812v-.473h65.333v-22.972H40.348l-2.907-6.055.426-.207 2.778 5.785h59.972zm0 0" fill="#2f2e41"/><path d="M48.543 201.89a4.976 4.976 0 01-4.973 4.977 4.975 4.975 0 010-9.949 4.973 4.973 0 014.973 4.973zm0 0M97.54 201.89a4.973 4.973 0 01-4.97 4.977 4.976 4.976 0 01-4.972-4.976 4.97 4.97 0 119.941 0zm0 0M153.402 96.258a3.08 3.08 0 11-3.078-3.082 3.08 3.08 0 013.078 3.082zm0 0" fill="#3f3d56"/><path d="M107.656 163.996H33.691l-16.004-52.344h106.45l-.098.309zm-73.613-.473h73.266l16.183-51.398H18.328zm0 0" fill="#2f2e41"/><path d="M101.883 161.273H36.918l-14.059-46.425h93.5l-.086.273zm0 0" fill="#f2f2f2"/><path d="M125.465 106.977l-.461-.122 3.125-11.785H146.3v.477h-17.809zm0 0M22.86 127.52h95.956v.476H22.86zm0 0M28.195 144.973h85.125v.472H28.195zm0 0" fill="#2f2e41"/><path d="M70.676 111.887h.472v51.87h-.472zm0 0M88.945 163.742l3.399-51.867.472.031-3.398 51.867zm0 0M49.016 111.902l.472-.027 3.38 51.867-.473.031zm0 0M0 207.164h249v.559H0zm0 0" fill="#2f2e41"/><path d="M165.465 17.207s4.062 11.57 1.562 13.348c-2.5 1.78 8.438 16.316 8.438 16.316l13.125-3.559-7.188-12.164s-.937-12.164-.937-13.941c0-1.781-15 0-15 0zm0 0" fill="#a0616a"/><use xlink:href="#prefix__c" mask="url(#prefix__d)"/><path d="M158.648 99.676s-1.187 14.836 0 22.547c1.184 7.715 2.965 29.074 2.965 29.074s0 40.344 6.52 40.937c6.523.594 11.265 1.188 11.86-1.187.593-2.371-2.966-3.559-1.184-4.746 1.777-1.188 2.37-5.34 0-10.086-2.375-4.746 0-52.805 0-52.805l11.265 30.258s1.184 24.922 2.371 28.48c1.184 3.559-1.187 10.086 2.965 10.68 4.149.594 8.895-2.969 11.266-4.152 2.37-1.188-3.559-1.188-2.371-1.781 1.183-.594 4.742-2.375 3.558-2.965-1.187-.594-2.375-29.075-2.375-29.075s-3.261-60.816-7.41-63.187c-4.152-2.375-6.82 1.715-6.82 1.715zm0 0" fill="#2f2e41"/><path d="M169.32 189.86v4.75s-5.336 12.902 0 12.902 9.489 1.336 9.489-.446v-16.02zm0 0M204.305 189.852v4.746s5.336 12.902 0 12.902-9.489 1.34-9.489-.441v-16.02zm0 0" fill="#2f2e41"/><path d="M184.441 15.129c0 5.898-4.78 10.68-10.675 10.68-5.895 0-10.672-4.782-10.672-10.68 0-5.899 4.777-10.68 10.672-10.68 5.894 0 10.675 4.781 10.675 10.68zm0 0" fill="#a0616a"/><path d="M170.504 35.004s2.965 8.902 7.71 7.121l4.743-1.781 8.3 56.96s-6.519 9.493-16.007 3.56c-9.488-5.934-4.746-65.86-4.746-65.86zm0 0" fill="#065f46"/><path d="M178.809 33.227l2.668-5.637s15.71 7.414 18.082 9.789c2.375 2.375 2.375 5.934 2.375 5.934l-4.153 14.832s1.188 32.632 1.188 33.82c0 1.187 4.148 7.71 1.183 5.34-2.964-2.375-3.558-4.746-5.93-1.188-2.37 3.559-7.706 7.715-7.706 7.715zm0 0" fill="#3f3d56"/><path d="M199.559 75.945L197.78 92.56s-10.672 9.492-8.3 10.086c2.37.593 3.558-1.782 3.558-1.782s4.149 4.153 6.52 1.782c2.375-2.375 8.304-24.922 8.304-24.922zm0 0" fill="#a0616a"/><path d="M173.996.035c-2.367-.082-4.898-.125-6.894 1.149-.918.64-1.723 1.43-2.383 2.336-1.942 2.457-3.621 5.55-2.899 8.597l.836-.324a5.5 5.5 0 01-.527 2.352c.117-.344.512.21.406.558l-.922 3.031c1.516-.554 3.407.57 3.637 2.172.105-3.52.469-7.558 3.324-9.617 1.438-1.043 3.262-1.36 5.012-1.64 1.617-.262 3.312-.508 4.863.023 1.547.535 2.867 2.117 2.516 3.719.715-.246 1.512.254 1.867.921.352.668.371 1.454.379 2.211.762.54 1.629-.53 1.937-1.41.73-2.066 1.38-4.261.985-6.418-.39-2.152-2.145-4.21-4.332-4.218.265-.29.406-.676.394-1.07l-1.804-.153a1.973 1.973 0 001.191-.629c-.723.797-6.418-1.547-7.586-1.59zm0 0" fill="#2f2e41"/><path d="M173.469 31.445s-4.824-4.734-6.563-4.441c-1.738.289-4.11 4.441-4.11 4.441s-14.23 4.746-13.636 9.492c.594 4.747 7.113 27.887 7.113 27.887s5.34 27.887.594 30.852c-4.742 2.969 22.531 10.68 23.125 7.12.594-3.558 1.781-39.16 0-44.5-1.777-5.339-6.523-30.85-6.523-30.85zm0 0M194.223 40.938h7.332s5.12 22.546 5.715 24.921c.593 2.371 1.777 13.645 1.183 13.645-.59 0-12.45-2.371-12.45-.594zm0 0" fill="#3f3d56"/><path d="M193.977 96.77h-28.07c-2.739-12.606-2.966-24.79 0-36.426h28.07c-4.532 11.426-4.813 23.527 0 36.426zm0 0" fill="#f2f2f2"/><path d="M154.496 81.285l8.3 3.559s16.013 2.375 16.013-4.153c0-6.527-16.012-2.968-16.012-2.968l-5.336-1.707zm0 0" fill="#a0616a"/><path d="M156.273 37.379l-7.113 1.781-5.336 31.445s-1.781 8.305 1.184 8.899c2.965.594 11.265 5.34 11.265 5.34s1.188-8.899 3.559-8.899l-5.93-4.746 3.559-20.765zm0 0" fill="#3f3d56"/><path d="M16.742 98.137h38.906v.554H16.742zm0 0" fill="#f2f2f2"/><path d="M27.305 93.129h.554v5.144h-.554zm0 0M44.254 93.129h.559v5.144h-.56zm0 0M30.36 15.824h38.906v.555H30.359zm0 0" fill="#f2f2f2"/><path d="M58.152 16.242h.555v5.145h-.555zm0 0M41.2 16.242h.554v5.145h-.555zm0 0M69.543 70.605h38.906v.555H69.543zm0 0" fill="#f2f2f2"/><path d="M97.336 71.023h.555v5.145h-.555zm0 0M80.383 71.023h.555v5.145h-.555zm0 0M3.402 70.328H42.31v.555H3.402zm0 0" fill="#f2f2f2"/><path d="M31.195 70.746h.555v5.145h-.555zm0 0M14.242 70.746h.555v5.145h-.555zm0 0M50.09 42.52h38.906v.554H50.09zm0 0" fill="#f2f2f2"/><path d="M60.652 37.516h.555v5.144h-.555zm0 0M77.605 37.516h.555v5.144h-.555zm0 0" fill="#f2f2f2"/></svg>