<svg xmlns="http://www.w3.org/2000/svg" xmlns:xlink="http://www.w3.org/1999/xlink" width="206" height="208" viewBox="0 0 206 207"><defs><clipPath id="prefix__b"><path d="M0 0h206v207H0z"/></clipPath><filter id="prefix__a" filterUnits="objectBoundingBox" x="0%" y="0%" width="100%" height="100%"><feColorMatrix in="SourceGraphic" values="0 0 0 0 1 0 0 0 0 1 0 0 0 0 1 0 0 0 1 0"/></filter><mask id="prefix__d"><g filter="url(#prefix__a)"><path fill-opacity=".2" d="M0 0h206v207H0z"/></g></mask><g id="prefix__c" clip-path="url(#prefix__b)"><path d="M85.676 164.555c0 10.52-8.563 19.047-19.121 19.047-10.559 0-19.121-8.528-19.121-19.047 0-10.52 8.562-19.047 19.12-19.047 10.56 0 19.122 8.527 19.122 19.047zm0 0" fill="#047857"/></g></defs><path d="M206 200.879c0-3.328-46.113-6.024-103-6.024S0 197.551 0 200.88s46.113 6.027 103 6.027 103-2.699 103-6.027zm0 0" fill="#e6e6e6"/><path d="M116.762 47.738h-1.106V17.5c0-9.664-7.867-17.5-17.57-17.5H33.773c-9.703 0-17.57 7.836-17.57 17.5v165.879c0 9.668 7.867 17.5 17.57 17.5h64.313c9.703 0 17.57-7.832 17.57-17.5V69.258h1.106zm0 0" fill="#3f3d56"/><path d="M111.918 17.621v165.637c-.004 7.219-5.875 13.07-13.121 13.07H34.176c-7.246 0-13.121-5.851-13.121-13.07V17.62c0-7.215 5.875-13.066 13.12-13.066h7.84a6.182 6.182 0 00.598 5.804 6.246 6.246 0 005.172 2.746H84.63A6.236 6.236 0 0089.8 10.36a6.183 6.183 0 00.601-5.804h8.395c7.246 0 13.117 5.851 13.121 13.066zm0 0" fill="#fff"/><path d="M50.906 143.031h-1.36L50 116.59h.453zm0 0" fill="#e6e6e6"/><path d="M52.04 99.941l2.19-3.379a50.46 50.46 0 00-2.25-5.246l-1.417 1.141 1.124-1.727c-1.07-2.101-1.914-3.421-1.914-3.421s-4.398 6.902-5.87 14.214l2.816 4.336-3.117-2.507c-.11.851-.168 1.71-.168 2.566 0 8.66 2.84 15.68 6.34 15.68 3.503 0 6.343-7.02 6.343-15.68 0-2.684-.613-5.492-1.453-8.09zm0 0" fill="#ccc"/><path d="M86.285 143.031h-1.36l.454-26.441h.453zm0 0" fill="#e6e6e6"/><path d="M87.418 99.941l2.195-3.379a50.486 50.486 0 00-2.254-5.246l-1.418 1.141 1.125-1.727c-1.07-2.101-1.914-3.421-1.914-3.421s-4.398 6.906-5.867 14.214l2.813 4.336-3.118-2.507c-.109.851-.168 1.707-.168 2.566 0 8.66 2.836 15.68 6.34 15.68s6.34-7.02 6.34-15.68c0-2.684-.61-5.492-1.449-8.09zm0 0" fill="#ccc"/><path d="M62.36 42.941c0 6.871-5.59 12.438-12.489 12.438-6.894 0-12.488-5.566-12.488-12.438 0-6.867 5.594-12.437 12.488-12.437 6.899 0 12.488 5.57 12.488 12.437zm0 0M67.168 139.18h-2.805l.938-54.52h.933zm0 0" fill="#e6e6e6"/><path d="M69.504 50.336l4.52-6.965c-1.34-3.691-2.891-7.3-4.637-10.82l-2.926 2.355 2.316-3.566c-2.21-4.328-3.945-7.055-3.945-7.055s-9.07 14.238-12.102 29.317l5.801 8.933-6.426-5.168a42.811 42.811 0 00-.351 5.293c0 17.856 5.855 32.332 13.078 32.332 7.219 0 13.074-14.476 13.074-32.332 0-5.535-1.258-11.324-2.992-16.68zm0 0" fill="#ccc"/><path d="M111.918 147.04v37.062c0 7.52-5.875 13.613-13.121 13.613H34.176c-7.246 0-13.121-6.094-13.121-13.613v-33.45c11.203-13.644 27.402-21.797 44.664-22.484 17.265-.688 34.02 6.156 46.199 18.871zm0 0" fill="#e6e6e6"/><use xlink:href="#prefix__c" mask="url(#prefix__d)"/><path d="M81.95 164.555c0 8.468-6.891 15.336-15.395 15.336s-15.395-6.868-15.395-15.336c0-8.47 6.89-15.336 15.395-15.336 8.504 0 15.394 6.867 15.394 15.336zm0 0" fill="#047857"/><path d="M64.758 171.11l-5.426-6.946 3.156-2.445 2.57 3.289 8.676-9.125 2.903 2.738zm0 0" fill="#fff"/><path d="M158.352 130.758c0 5.492-4.47 9.945-9.98 9.945-5.517 0-9.985-4.453-9.985-9.945 0-5.488 4.468-9.942 9.984-9.942 5.512 0 9.98 4.454 9.98 9.942zm0 0" fill="#2f2e41"/><path d="M152.414 186.578l.77 3.613 14.359-1.234-1.133-5.332zm0 0" fill="#ffb8b8"/><path d="M151.297 197.871l-2.414-11.355 4.402-.93 1.485 6.969a4.484 4.484 0 01-3.473 5.316zm0 0" fill="#2f2e41"/><path d="M143.418 186.387l-1.613 3.324-13.645-4.629 2.387-4.906zm0 0" fill="#ffb8b8"/><path d="M139.695 191.629l3.118-6.414 4.054 1.957-5.078 10.45a4.481 4.481 0 01-2.094-5.993zm0 0" fill="#2f2e41"/><path d="M116.54 179.82a3.24 3.24 0 003.844-3.16L142.882 156l-5.59-4.309-20.367 21.676a3.262 3.262 0 00-3.07 3.055 3.256 3.256 0 002.683 3.398zm0 0M154.547 133.75c0 4.09-3.328 7.402-7.43 7.402-4.101 0-7.43-3.312-7.43-7.402 0-4.086 3.329-7.398 7.43-7.398 4.102 0 7.43 3.312 7.43 7.398zm0 0" fill="#ffb8b8"/><path d="M153.785 177.254c-5.21 0-11.488-1.094-15.36-5.57l-.09-.098.095-.102c.027-.03 2.875-3.273.03-9.054l-3.91 1.195-3.894-5.117 2.156-6.446 8.829-7.082a8.101 8.101 0 014.418-1.742 24.364 24.364 0 008.406-2.386 8.496 8.496 0 013.87-.844l.173.004a3.017 3.017 0 012.152.992c.55.61.828 1.418.766 2.234-.598 7.723-1.656 26.38 1.449 32.801l.082.168-.18.043a41.23 41.23 0 01-8.992 1.004zm0 0" fill="#047857"/><path d="M139.445 171.586s-19.66-1.809-21.777 3.918c-2.117 5.726.3 8.437 3.93 9.64C125.23 186.353 134 187.86 134 187.86l3.934-4.824 10.285.606s11.46 6.62 14.629 13.699a9.311 9.311 0 007.797 5.496c2.542.176 4.8-.781 4.8-4.734 0-9.04-12.707-21.997-12.707-21.997zm0 0M124.473 180.477s5.144-1.508 13.308 2.41M139.707 129.031a22.138 22.138 0 009.559 3.137l-1.008-1.203c.734.27 1.504.422 2.285.453a2.515 2.515 0 002.043-.953c.402-.645.46-1.445.156-2.145a4.427 4.427 0 00-1.387-1.726 8.3 8.3 0 00-7.695-1.371 4.96 4.96 0 00-2.297 1.468 2.774 2.774 0 00-.566 2.579M148.316 123.117a22.752 22.752 0 015.79-7.992c1.601-1.418 3.468-2.637 5.578-3.004 2.109-.367 4.488.262 5.78 1.965 1.06 1.387 1.259 3.25 1.141 4.992-.117 1.738-.507 3.465-.468 5.207a10.678 10.678 0 005.07 8.852 10.769 10.769 0 0010.215.593c-1.824 1.004-3.242 2.59-4.934 3.801-1.687 1.207-3.918 2.035-5.84 1.239-2.03-.844-2.964-3.141-3.691-5.211l-3.246-9.23c-.555-1.571-1.133-3.188-2.258-4.415-1.129-1.227-2.953-1.977-4.504-1.36-1.176.47-1.941 1.587-2.613 2.653-.668 1.066-1.375 2.203-2.508 2.766-1.133.558-2.816.215-3.183-.993" fill="#2f2e41"/><path d="M150.867 177.277a3.32 3.32 0 01-3.336-3.504 3.324 3.324 0 013.328-3.125c.149 0 .297.012.446.036l10.156-10.774-1.059-3.52 5.325-2.378 1.492 3.636a6.162 6.162 0 01-1.867 7.133l-11.18 8.856a3.304 3.304 0 01-1.094 2.797 3.276 3.276 0 01-2.21.843zm0 0" fill="#ffb8b8"/><path d="M158.805 141.457a2.865 2.865 0 013.82 1.55l5.258 13.212-8.168 5.426zm0 0" fill="#047857"/></svg>